<?xml version="1.0" encoding="iso-8859-1"?>
<!-- Generator: Adobe Illustrator 19.0.0, SVG Export Plug-In . SVG Version: 6.00 Build 0)  -->
<svg version="1.1" id="Capa_1" xmlns="http://www.w3.org/2000/svg" xmlns:xlink="http://www.w3.org/1999/xlink" x="0px" y="0px"
	 viewBox="0 0 496 496" style="enable-background:new 0 0 496 496;" xml:space="preserve">
<circle style="fill:#FFA64D;" cx="248" cy="72" r="40"/>
<g>
	<path style="fill:#333333;" d="M160,264c-13.232,0-24-10.768-24-24h-16c0,22.056,17.944,40,40,40s40-17.944,40-40h-16
		C184,253.232,173.232,264,160,264z"/>
	<path style="fill:#333333;" d="M336,264c-13.232,0-24-10.768-24-24h-16c0,22.056,17.944,40,40,40s40-17.944,40-40h-16
		C360,253.232,349.232,264,336,264z"/>
	<path style="fill:#333333;" d="M480,240c0-28.152-20.912-51.456-48-55.36V176c0-27.488-64.576-39.096-103.08-43.568l-1.84,15.888
		C393.608,156.056,416,170.568,416,176c0,10.856-59.296,32-168,32S80,186.856,80,176c0-5.432,22.392-19.944,88.92-27.68
		l-1.84-15.888C128.576,136.904,64,148.512,64,176v8.64c-27.088,3.904-48,27.208-48,55.36c0,28.216,21.008,51.568,48.184,55.392
		C66.96,365.048,108.6,424.88,168,453.672V496h16v-35.496C203.944,467.928,225.504,472,248,472s44.056-4.072,64-11.496V496h16
		v-42.328c59.4-28.8,101.04-88.624,103.816-158.288C458.992,291.568,480,268.216,480,240z M32,240c0-19.312,13.768-35.472,32-39.192
		v78.384C45.768,275.472,32,259.312,32,240z M248,456c-92.632,0-168-75.368-168-168v-90.584C114.856,217.936,198.544,224,248,224
		s133.144-6.064,168-26.584V288C416,380.632,340.632,456,248,456z M432,279.192v-78.384c18.232,3.72,32,19.872,32,39.192
		S450.232,275.472,432,279.192z"/>
	<path style="fill:#333333;" d="M200,125.624V144h-16v16h16v32h96v-32h16v-16h-16v-18.376c15.296-13.68,24-33.008,24-53.624
		c0-39.696-32.296-72-72-72s-72,32.304-72,72C176,92.616,184.704,111.944,200,125.624z M280,176h-64v-16h64V176z M240,72
		c0-4.408,3.584-8,8-8c4.416,0,8,3.592,8,8s-3.584,8-8,8S240,76.408,240,72z M248,16c30.872,0,56,25.12,56,56
		c0,17.04-7.656,32.968-21.008,43.68l-2.992,2.4V144h-24V94.528c9.288-3.312,16-12.112,16-22.528c0-13.232-10.768-24-24-24
		s-24,10.768-24,24c0,10.416,6.712,19.216,16,22.528V144h-24v-25.92l-2.992-2.4C199.656,104.968,192,89.04,192,72
		C192,41.12,217.128,16,248,16z"/>
	<rect x="336" y="64" style="fill:#333333;" width="48" height="16"/>
	
		<rect x="326.696" y="23.991" transform="matrix(-0.9486 0.3164 -0.3164 -0.9486 696.0294 -49.0363)" style="fill:#333333;" width="50.599" height="16"/>
	
		<rect x="344" y="86.689" transform="matrix(-0.3162 0.9487 -0.9487 -0.3162 569.5448 -186.5399)" style="fill:#333333;" width="16" height="50.6"/>
	<rect x="112" y="64" style="fill:#333333;" width="48" height="16"/>
	
		<rect x="135.998" y="6.699" transform="matrix(-0.3162 0.9487 -0.9487 -0.3162 219.8872 -94.4933)" style="fill:#333333;" width="16" height="50.6"/>
	
		<rect x="118.7" y="103.994" transform="matrix(-0.9486 0.3164 -0.3164 -0.9486 316.0356 172.6716)" style="fill:#333333;" width="50.599" height="16"/>
</g>
<g>
</g>
<g>
</g>
<g>
</g>
<g>
</g>
<g>
</g>
<g>
</g>
<g>
</g>
<g>
</g>
<g>
</g>
<g>
</g>
<g>
</g>
<g>
</g>
<g>
</g>
<g>
</g>
<g>
</g>
</svg>
