<?xml version="1.0" encoding="iso-8859-1"?>
<!-- Generator: Adobe Illustrator 19.0.0, SVG Export Plug-In . SVG Version: 6.00 Build 0)  -->
<svg version="1.1" id="Capa_1" xmlns="http://www.w3.org/2000/svg" xmlns:xlink="http://www.w3.org/1999/xlink" x="0px" y="0px"
	 viewBox="0 0 495.979 495.979" style="enable-background:new 0 0 495.979 495.979;" xml:space="preserve">
<path style="fill:#FFA64D;" d="M319.989,191.979h-144v-144h32.856c-0.544-2.376-0.856-5.192-0.856-8
	c0-12.016,5.328-23.28,14.616-30.912s21.504-10.632,33.456-8.288c13.808,2.728,25.552,13.256,29.936,26.832
	c2.168,6.696,2.568,13.464,1.2,20.112l32.792,0.256v32.88c0,4.784-2.12,9.256-5.808,12.264c-3.808,3.104-8.792,4.336-13.68,3.312
	c-3.904-0.808-7.912-0.552-11.944,0.752l0,0c-8.144,2.624-14.456,9.6-16.08,17.792c-1.464,7.376,0.296,14.552,4.952,20.216
	c5.616,6.84,14.736,10.216,23.464,8.232c4.584-0.992,9.32,0.104,13.032,3.072c3.856,3.088,6.064,7.68,6.064,12.624V191.979z"/>
<g>
	<path style="fill:#333333;" d="M159.989,263.979c-13.232,0-24-10.768-24-24h-16c0,22.056,17.944,40,40,40s40-17.944,40-40h-16
		C183.989,253.211,173.221,263.979,159.989,263.979z"/>
	<path style="fill:#333333;" d="M335.989,263.979c-13.232,0-24-10.768-24-24h-16c0,22.056,17.944,40,40,40s40-17.944,40-40h-16
		C359.989,253.211,349.221,263.979,335.989,263.979z"/>
	<path style="fill:#333333;" d="M479.989,239.979c0-28.152-20.904-51.456-48-55.36v-8.64c0-24.856-51.64-36.864-94.96-42.56
		l-2.088,15.856c60.64,7.976,81.048,21.68,81.048,26.704c0,10.856-59.296,32-168,32s-168-21.144-168-32
		c0-5.024,20.408-18.728,81.04-26.704l-2.08-15.856c-43.32,5.696-94.96,17.704-94.96,42.56v8.64c-27.096,3.904-48,27.208-48,55.36
		c0,28.216,21,51.568,48.184,55.392c2.776,69.656,44.416,129.48,103.816,158.28v42.328h16v-35.496
		c19.944,7.424,41.504,11.496,64,11.496s44.056-4.072,64-11.496v35.496h16v-42.328c59.4-28.8,101.04-88.624,103.816-158.288
		C458.989,291.547,479.989,268.195,479.989,239.979z M31.989,239.979c0-19.312,13.768-35.472,32-39.192v78.384
		C45.757,275.451,31.989,259.291,31.989,239.979z M247.989,455.979c-92.64,0-168-75.368-168-168v-90.584
		c34.856,20.52,118.544,26.584,168,26.584s133.144-6.064,168-26.584v90.584C415.989,380.611,340.629,455.979,247.989,455.979z
		 M431.989,279.171v-78.384c18.232,3.72,32,19.872,32,39.192C463.989,259.299,450.221,275.451,431.989,279.171z"/>
</g>
<g>
</g>
<g>
</g>
<g>
</g>
<g>
</g>
<g>
</g>
<g>
</g>
<g>
</g>
<g>
</g>
<g>
</g>
<g>
</g>
<g>
</g>
<g>
</g>
<g>
</g>
<g>
</g>
<g>
</g>
</svg>
