<?xml version="1.0" encoding="iso-8859-1"?>
<!-- Generator: Adobe Illustrator 19.0.0, SVG Export Plug-In . SVG Version: 6.00 Build 0)  -->
<svg version="1.1" id="Capa_1" xmlns="http://www.w3.org/2000/svg" xmlns:xlink="http://www.w3.org/1999/xlink" x="0px" y="0px"
	 viewBox="0 0 496.792 496.792" style="enable-background:new 0 0 496.792 496.792;" xml:space="preserve">
<g>
	<path style="fill:#333333;" d="M160.396,264.792c-13.232,0-24-10.768-24-24h-16c0,22.056,17.944,40,40,40s40-17.944,40-40h-16
		C184.396,254.024,173.628,264.792,160.396,264.792z"/>
	<path style="fill:#333333;" d="M336.396,264.792c-13.232,0-24-10.768-24-24h-16c0,22.056,17.944,40,40,40s40-17.944,40-40h-16
		C360.396,254.024,349.628,264.792,336.396,264.792z"/>
	<path style="fill:#333333;" d="M480.396,240.792c0-28.152-20.912-51.456-48-55.36v-8.64c0-16.912-23.728-29.936-70.52-38.72
		l-2.952,15.72c47.712,8.96,57.472,20.424,57.472,23c0,10.856-59.296,32-168,32s-168-21.144-168-32c0-2.576,9.76-14.04,57.48-23
		l-2.952-15.72c-46.8,8.784-70.528,21.808-70.528,38.72v8.64c-27.088,3.904-48,27.208-48,55.36
		c0,28.216,21.008,51.568,48.184,55.392c2.776,69.656,44.416,129.488,103.816,158.28v42.328h16v-35.496
		c19.944,7.424,41.504,11.496,64,11.496s44.056-4.072,64-11.496v35.496h16v-42.328c59.4-28.8,101.04-88.624,103.816-158.288
		C459.388,292.36,480.396,269.008,480.396,240.792z M32.396,240.792c0-19.312,13.768-35.472,32-39.192v78.384
		C46.164,276.264,32.396,260.104,32.396,240.792z M248.396,456.792c-92.632,0-168-75.368-168-168v-90.584
		c34.856,20.52,118.544,26.584,168,26.584s133.144-6.064,168-26.584v90.584C416.396,381.424,341.028,456.792,248.396,456.792z
		 M432.396,279.984V201.6c18.232,3.72,32,19.872,32,39.192S450.628,276.264,432.396,279.984z"/>
	<path style="fill:#333333;" d="M344.396,149.944V43.64l-96-43.64l-96,43.64v106.296l96,43.64L344.396,149.944z M256.396,172.368
		V93.96l72-32.48v78.168L256.396,172.368z M317.34,48.912l-68.944,31.104l-68.944-31.104l68.944-31.328L317.34,48.912z
		 M168.396,61.472l72,32.48v78.408l-72-32.72V61.472z"/>
	<rect x="360.396" y="72.792" style="fill:#333333;" width="16" height="48"/>
	<rect x="120.396" y="72.792" style="fill:#333333;" width="16" height="48"/>
</g>
<polygon style="fill:#FFA64D;" points="232.396,98.328 176.396,72.792 176.396,135.112 232.396,160.792 "/>
<g>
</g>
<g>
</g>
<g>
</g>
<g>
</g>
<g>
</g>
<g>
</g>
<g>
</g>
<g>
</g>
<g>
</g>
<g>
</g>
<g>
</g>
<g>
</g>
<g>
</g>
<g>
</g>
<g>
</g>
</svg>
