<?xml version="1.0" encoding="iso-8859-1"?>
<!-- Generator: Adobe Illustrator 19.0.0, SVG Export Plug-In . SVG Version: 6.00 Build 0)  -->
<svg version="1.1" id="Capa_1" xmlns="http://www.w3.org/2000/svg" xmlns:xlink="http://www.w3.org/1999/xlink" x="0px" y="0px"
	 viewBox="0 0 496 496" style="enable-background:new 0 0 496 496;" xml:space="preserve">
<g>
	<path style="fill:#333333;" d="M160,264c-13.232,0-24-10.768-24-24h-16c0,22.056,17.944,40,40,40s40-17.944,40-40h-16
		C184,253.232,173.232,264,160,264z"/>
	<path style="fill:#333333;" d="M336,280c22.056,0,40-17.944,40-40h-16c0,13.232-10.768,24-24,24s-24-10.768-24-24h-16
		C296,262.056,313.944,280,336,280z"/>
	<path style="fill:#333333;" d="M432,184.64V176c0-33-90.456-43.192-129.344-46.048l-1.168,15.96
		C381.424,151.768,416,168.672,416,176c0,10.856-59.296,32-168,32S80,186.856,80,176c0-7.328,34.576-24.232,114.512-30.088
		l-1.168-15.96C154.456,132.808,64,143,64,176v8.64c-27.096,3.904-48,27.208-48,55.36c0,28.216,21,51.568,48.184,55.392
		C66.96,365.048,108.6,424.872,168,453.672V496h16v-35.496C203.944,467.928,225.504,472,248,472c22.504,0,44.056-4.096,64-11.528
		V496h16v-42.368c59.376-28.808,101.048-88.592,103.816-158.24C459,291.568,480,268.216,480,240
		C480,211.848,459.096,188.544,432,184.64z M32,240c0-19.312,13.768-35.472,32-39.192v78.384C45.768,275.472,32,259.312,32,240z
		 M416,288c0,92.632-75.36,168-168,168S80,380.632,80,288v-90.584C114.856,217.936,198.544,224,248,224s133.144-6.064,168-26.584
		V288z M432,279.192v-78.384c18.232,3.72,32,19.872,32,39.192S450.232,275.472,432,279.192z"/>
	<rect x="416" style="fill:#333333;" width="16" height="16"/>
	<rect x="416" y="32" style="fill:#333333;" width="16" height="16"/>
	<rect x="432" y="16" style="fill:#333333;" width="16" height="16"/>
	<rect x="400" y="16" style="fill:#333333;" width="16" height="16"/>
	<rect x="80" y="80" style="fill:#333333;" width="16" height="16"/>
	<rect x="80" y="112" style="fill:#333333;" width="16" height="16"/>
	<rect x="96" y="96" style="fill:#333333;" width="16" height="16"/>
	<rect x="64" y="96" style="fill:#333333;" width="16" height="16"/>
</g>
<path style="fill:#FFA64D;" d="M248,203.312l-93.088-93.088C142.72,98.032,136,81.816,136,64.568C136,28.968,164.968,0,200.568,0
	c17.24,0,33.464,6.72,45.656,18.912L248,20.688l1.776-1.776C261.968,6.72,278.184,0,295.432,0C331.032,0,360,28.968,360,64.568
	c0,17.24-6.72,33.464-18.912,45.656L248,203.312z"/>
<g>
	
		<rect x="188.494" y="87.512" transform="matrix(-0.7071 0.7071 -0.7071 -0.7071 417.8117 59.9287)" style="fill:#333333;" width="16" height="57.967"/>
	
		<rect x="226.323" y="146.21" transform="matrix(-0.7071 0.7071 -0.7071 -0.7071 509.1146 97.6985)" style="fill:#333333;" width="16" height="16.16"/>
</g>
<g>
</g>
<g>
</g>
<g>
</g>
<g>
</g>
<g>
</g>
<g>
</g>
<g>
</g>
<g>
</g>
<g>
</g>
<g>
</g>
<g>
</g>
<g>
</g>
<g>
</g>
<g>
</g>
<g>
</g>
</svg>
